{
  "asset": {
    "version": "2.0",
    "generator": "vscode",
    "copyright": "Khruschev Dmitry aka DimaO"
  },
  "buffers": [
    {
      "byteLength": 1152,
      "uri": "dice.bin"
    }
  ],
  "bufferViews": [
    {
      "buffer": 0,
      "byteLength": 432,
      "byteOffset": 0,
      "target": 34962
    },
    {
      "buffer": 0,
      "byteLength": 432,
      "byteOffset": 432,
      "target": 34962
    },
    {
      "buffer": 0,
      "byteLength": 288,
      "byteOffset": 864,
      "target": 34962
    }
  ],
  "accessors": [
    {
      "bufferView": 0,
      "byteOffset": 0,
      "componentType": 5126,
      "count": 36,
      "type": "VEC3",
      "min": [
        -0.5,
        -0.5,
        -0.5
      ],
      "max": [
        0.5,
        0.5,
        0.5
      ]
    },
    {
      "bufferView": 1,
      "byteOffset": 0,
      "componentType": 5126,
      "count": 36,
      "type": "VEC3"
    },
    {
      "bufferView": 2,
      "byteOffset": 0,
      "componentType": 5126,
      "count": 36,
      "type": "VEC2"
    }
  ],
  "images": [
    {
      "uri": "dice.png"
    },
    {
      "uri": "dice_n.png"
    }
  ],
  "samplers": [
    {
      "minFilter": 9729,
      "magFilter": 9729,
      "wrapS": 33071,
      "wrapT": 33071
    }
  ],
  "textures": [
    {
      "source": 0,
      "sampler": 0
    },
    {
      "source": 1,
      "sampler": 0
    }
  ],
  "materials": [
    {
      "name": "malachite",
      "pbrMetallicRoughness": {
        "baseColorTexture": {
          "index": 0,
          "texCoord": 0
        },
        "baseColorFactor": [
          1,
          1,
          1,
          1
        ],
        "roughnessFactor": 1.0,
        "metallicFactor": 1.0
      },
      "normalTexture" : {
        "index" : 1,
        "texCoord": 0
      }
    }
  ],
  "cameras": [
    {
      "type": "perspective",
      "perspective": {
        "aspectRatio": 1.66666666,
        "yfov": 0.7854,
        "zfar": 10.0,
        "znear": 0.1
      }
    }
  ],
  "nodes": [
    {
      "name": "dice",
      "mesh": 0
    },
    {
      "name": "camera0",
      "camera": 0,
      "translation": [
        2,
        3,
        5
      ],
      "rotation": [
        0,
        0,
        0,
        1
      ]
    },
    {
      "name": "light0",
      "extensions": {
        "KHR_lights_punctual": {
          "light": 0
        }
      },
      "translation": [
        -1,
        10,
        1
      ]
    }
  ],
  "scenes": [
    {
      "name": "scene",
      "nodes": [
        0,
        1,
        2
      ]
    }
  ],
  "meshes": [
    {
      "primitives": [
        {
          "attributes": {
            "POSITION": 0,
            "NORMAL": 1,
            "TEXCOORD_0": 2
          },
          "material": 0
        }
      ]
    }
  ],
  "extensionsUsed": [
    "KHR_lights_punctual"
  ],
  "extensions": {
    "KHR_lights_punctual": {
      "lights": [
        {
          "type": "point",
          "color": [
            1,
            0,
            1
          ]
        }
      ]
    }
  },
  "scene": 0
}